<?xml version="1.0" encoding="UTF-8"?>
<svg xmlns:xlink="http://www.w3.org/1999/xlink" id="mermaid-svg-66" width="100%" xmlns="http://www.w3.org/2000/svg" class="flowchart" style="max-width: 100%;" viewBox="-23.617968750000003 -23.617968750000003 519.5953125 2013.2359375" role="graphics-document document" aria-roledescription="flowchart-v2" height="100%"><style>#mermaid-svg-66{font-family:"trebuchet ms",verdana,arial,sans-serif;font-size:16px;fill:#333;}@keyframes edge-animation-frame{from{stroke-dashoffset:0;}}@keyframes dash{to{stroke-dashoffset:0;}}#mermaid-svg-66 .edge-animation-slow{stroke-dasharray:9,5!important;stroke-dashoffset:900;animation:dash 50s linear infinite;stroke-linecap:round;}#mermaid-svg-66 .edge-animation-fast{stroke-dasharray:9,5!important;stroke-dashoffset:900;animation:dash 20s linear infinite;stroke-linecap:round;}#mermaid-svg-66 .error-icon{fill:#552222;}#mermaid-svg-66 .error-text{fill:#552222;stroke:#552222;}#mermaid-svg-66 .edge-thickness-normal{stroke-width:1px;}#mermaid-svg-66 .edge-thickness-thick{stroke-width:3.5px;}#mermaid-svg-66 .edge-pattern-solid{stroke-dasharray:0;}#mermaid-svg-66 .edge-thickness-invisible{stroke-width:0;fill:none;}#mermaid-svg-66 .edge-pattern-dashed{stroke-dasharray:3;}#mermaid-svg-66 .edge-pattern-dotted{stroke-dasharray:2;}#mermaid-svg-66 .marker{fill:#333333;stroke:#333333;}#mermaid-svg-66 .marker.cross{stroke:#333333;}#mermaid-svg-66 svg{font-family:"trebuchet ms",verdana,arial,sans-serif;font-size:16px;}#mermaid-svg-66 p{margin:0;}#mermaid-svg-66 .label{font-family:"trebuchet ms",verdana,arial,sans-serif;color:#333;}#mermaid-svg-66 .cluster-label text{fill:#333;}#mermaid-svg-66 .cluster-label span{color:#333;}#mermaid-svg-66 .cluster-label span p{background-color:transparent;}#mermaid-svg-66 .label text,#mermaid-svg-66 span{fill:#333;color:#333;}#mermaid-svg-66 .node rect,#mermaid-svg-66 .node circle,#mermaid-svg-66 .node ellipse,#mermaid-svg-66 .node polygon,#mermaid-svg-66 .node path{fill:#ECECFF;stroke:#9370DB;stroke-width:1px;}#mermaid-svg-66 .rough-node .label text,#mermaid-svg-66 .node .label text,#mermaid-svg-66 .image-shape .label,#mermaid-svg-66 .icon-shape .label{text-anchor:middle;}#mermaid-svg-66 .node .katex path{fill:#000;stroke:#000;stroke-width:1px;}#mermaid-svg-66 .rough-node .label,#mermaid-svg-66 .node .label,#mermaid-svg-66 .image-shape .label,#mermaid-svg-66 .icon-shape .label{text-align:center;}#mermaid-svg-66 .node.clickable{cursor:pointer;}#mermaid-svg-66 .root .anchor path{fill:#333333!important;stroke-width:0;stroke:#333333;}#mermaid-svg-66 .arrowheadPath{fill:#333333;}#mermaid-svg-66 .edgePath .path{stroke:#333333;stroke-width:2.0px;}#mermaid-svg-66 .flowchart-link{stroke:#333333;fill:none;}#mermaid-svg-66 .edgeLabel{background-color:rgba(232,232,232, 0.8);text-align:center;}#mermaid-svg-66 .edgeLabel p{background-color:rgba(232,232,232, 0.8);}#mermaid-svg-66 .edgeLabel rect{opacity:0.5;background-color:rgba(232,232,232, 0.8);fill:rgba(232,232,232, 0.8);}#mermaid-svg-66 .labelBkg{background-color:rgba(232, 232, 232, 0.5);}#mermaid-svg-66 .cluster rect{fill:#ffffde;stroke:#aaaa33;stroke-width:1px;}#mermaid-svg-66 .cluster text{fill:#333;}#mermaid-svg-66 .cluster span{color:#333;}#mermaid-svg-66 div.mermaidTooltip{position:absolute;text-align:center;max-width:200px;padding:2px;font-family:"trebuchet ms",verdana,arial,sans-serif;font-size:12px;background:hsl(80, 100%, 96.2745098039%);border:1px solid #aaaa33;border-radius:2px;pointer-events:none;z-index:100;}#mermaid-svg-66 .flowchartTitleText{text-anchor:middle;font-size:18px;fill:#333;}#mermaid-svg-66 rect.text{fill:none;stroke-width:0;}#mermaid-svg-66 .icon-shape,#mermaid-svg-66 .image-shape{background-color:rgba(232,232,232, 0.8);text-align:center;}#mermaid-svg-66 .icon-shape p,#mermaid-svg-66 .image-shape p{background-color:rgba(232,232,232, 0.8);padding:2px;}#mermaid-svg-66 .icon-shape rect,#mermaid-svg-66 .image-shape rect{opacity:0.5;background-color:rgba(232,232,232, 0.8);fill:rgba(232,232,232, 0.8);}#mermaid-svg-66 .label-icon{display:inline-block;height:1em;overflow:visible;vertical-align:-0.125em;}#mermaid-svg-66 .node .label-icon path{fill:currentColor;stroke:revert;stroke-width:revert;}#mermaid-svg-66 :root{--mermaid-font-family:"trebuchet ms",verdana,arial,sans-serif;}#mermaid-svg-66 .config&gt;*{fill:#e1f5fe!important;}#mermaid-svg-66 .config span{fill:#e1f5fe!important;}#mermaid-svg-66 .process&gt;*{fill:#f3e5f5!important;}#mermaid-svg-66 .process span{fill:#f3e5f5!important;}#mermaid-svg-66 .output&gt;*{fill:#e8f5e8!important;}#mermaid-svg-66 .output span{fill:#e8f5e8!important;}</style><g><marker id="mermaid-svg-66_flowchart-v2-pointEnd" class="marker flowchart-v2" viewBox="0 0 10 10" refX="5" refY="5" markerUnits="userSpaceOnUse" markerWidth="8" markerHeight="8" orient="auto"><path d="M 0 0 L 10 5 L 0 10 z" class="arrowMarkerPath" style="stroke-width: 1; stroke-dasharray: 1, 0;"></path></marker><marker id="mermaid-svg-66_flowchart-v2-pointStart" class="marker flowchart-v2" viewBox="0 0 10 10" refX="4.5" refY="5" markerUnits="userSpaceOnUse" markerWidth="8" markerHeight="8" orient="auto"><path d="M 0 5 L 10 10 L 10 0 z" class="arrowMarkerPath" style="stroke-width: 1; stroke-dasharray: 1, 0;"></path></marker><marker id="mermaid-svg-66_flowchart-v2-circleEnd" class="marker flowchart-v2" viewBox="0 0 10 10" refX="11" refY="5" markerUnits="userSpaceOnUse" markerWidth="11" markerHeight="11" orient="auto"><circle cx="5" cy="5" r="5" class="arrowMarkerPath" style="stroke-width: 1; stroke-dasharray: 1, 0;"></circle></marker><marker id="mermaid-svg-66_flowchart-v2-circleStart" class="marker flowchart-v2" viewBox="0 0 10 10" refX="-1" refY="5" markerUnits="userSpaceOnUse" markerWidth="11" markerHeight="11" orient="auto"><circle cx="5" cy="5" r="5" class="arrowMarkerPath" style="stroke-width: 1; stroke-dasharray: 1, 0;"></circle></marker><marker id="mermaid-svg-66_flowchart-v2-crossEnd" class="marker cross flowchart-v2" viewBox="0 0 11 11" refX="12" refY="5.2" markerUnits="userSpaceOnUse" markerWidth="11" markerHeight="11" orient="auto"><path d="M 1,1 l 9,9 M 10,1 l -9,9" class="arrowMarkerPath" style="stroke-width: 2; stroke-dasharray: 1, 0;"></path></marker><marker id="mermaid-svg-66_flowchart-v2-crossStart" class="marker cross flowchart-v2" viewBox="0 0 11 11" refX="-1" refY="5.2" markerUnits="userSpaceOnUse" markerWidth="11" markerHeight="11" orient="auto"><path d="M 1,1 l 9,9 M 10,1 l -9,9" class="arrowMarkerPath" style="stroke-width: 2; stroke-dasharray: 1, 0;"></path></marker><g class="root"><g class="clusters"></g><g class="edgePaths"><path d="M316.943,62L316.943,66.167C316.943,70.333,316.943,78.667,316.943,86.333C316.943,94,316.943,101,316.943,104.5L316.943,108" id="L_A_B_0" class="edge-thickness-normal edge-pattern-solid edge-thickness-normal edge-pattern-solid flowchart-link" style="" marker-end="url(#mermaid-svg-66_flowchart-v2-pointEnd)"></path><path d="M254.943,163.922L243.716,168.435C232.49,172.948,210.036,181.974,198.809,189.987C187.582,198,187.582,205,187.582,208.5L187.582,212" id="L_B_C_0" class="edge-thickness-normal edge-pattern-solid edge-thickness-normal edge-pattern-solid flowchart-link" style="" marker-end="url(#mermaid-svg-66_flowchart-v2-pointEnd)"></path><path d="M359.367,166L365.914,170.167C372.461,174.333,385.555,182.667,392.102,190.333C398.648,198,398.648,205,398.648,208.5L398.648,212" id="L_B_D_0" class="edge-thickness-normal edge-pattern-solid edge-thickness-normal edge-pattern-solid flowchart-link" style="" marker-end="url(#mermaid-svg-66_flowchart-v2-pointEnd)"></path><path d="M187.582,270L187.582,274.167C187.582,278.333,187.582,286.667,197.329,294.751C207.076,302.836,226.57,310.672,236.317,314.59L246.064,318.508" id="L_C_E_0" class="edge-thickness-normal edge-pattern-solid edge-thickness-normal edge-pattern-solid flowchart-link" style="" marker-end="url(#mermaid-svg-66_flowchart-v2-pointEnd)"></path><path d="M398.648,270L398.648,274.167C398.648,278.333,398.648,286.667,392.664,294.642C386.68,302.617,374.711,310.235,368.726,314.044L362.742,317.852" id="L_D_E_0" class="edge-thickness-normal edge-pattern-solid edge-thickness-normal edge-pattern-solid flowchart-link" style="" marker-end="url(#mermaid-svg-66_flowchart-v2-pointEnd)"></path><path d="M316.943,374L316.943,378.167C316.943,382.333,316.943,390.667,316.943,398.333C316.943,406,316.943,413,316.943,416.5L316.943,420" id="L_E_F_0" class="edge-thickness-normal edge-pattern-solid edge-thickness-normal edge-pattern-solid flowchart-link" style="" marker-end="url(#mermaid-svg-66_flowchart-v2-pointEnd)"></path><path d="M316.943,478L316.943,482.167C316.943,486.333,316.943,494.667,316.943,502.333C316.943,510,316.943,517,316.943,520.5L316.943,524" id="L_F_G_0" class="edge-thickness-normal edge-pattern-solid edge-thickness-normal edge-pattern-solid flowchart-link" style="" marker-end="url(#mermaid-svg-66_flowchart-v2-pointEnd)"></path><path d="M206.943,580.657L188.119,585.047C169.296,589.438,131.648,598.219,112.824,606.109C94,614,94,621,94,624.5L94,628" id="L_G_H_0" class="edge-thickness-normal edge-pattern-solid edge-thickness-normal edge-pattern-solid flowchart-link" style="" marker-end="url(#mermaid-svg-66_flowchart-v2-pointEnd)"></path><path d="M94,686L94,690.167C94,694.333,94,702.667,94,710.333C94,718,94,725,94,728.5L94,732" id="L_H_I_0" class="edge-thickness-normal edge-pattern-solid edge-thickness-normal edge-pattern-solid flowchart-link" style="" marker-end="url(#mermaid-svg-66_flowchart-v2-pointEnd)"></path><path d="M94,790L94,794.167C94,798.333,94,806.667,94,814.333C94,822,94,829,94,832.5L94,836" id="L_I_J_0" class="edge-thickness-normal edge-pattern-solid edge-thickness-normal edge-pattern-solid flowchart-link" style="" marker-end="url(#mermaid-svg-66_flowchart-v2-pointEnd)"></path><path d="M94,894L94,898.167C94,902.333,94,910.667,99.578,918.625C105.157,926.584,116.314,934.168,121.892,937.959L127.471,941.751" id="L_J_K_0" class="edge-thickness-normal edge-pattern-solid edge-thickness-normal edge-pattern-solid flowchart-link" style="" marker-end="url(#mermaid-svg-66_flowchart-v2-pointEnd)"></path><path d="M170.5,998L170.5,1002.167C170.5,1006.333,170.5,1014.667,170.5,1022.333C170.5,1030,170.5,1037,170.5,1040.5L170.5,1044" id="L_K_L_0" class="edge-thickness-normal edge-pattern-solid edge-thickness-normal edge-pattern-solid flowchart-link" style="" marker-end="url(#mermaid-svg-66_flowchart-v2-pointEnd)"></path><path d="M170.5,1102L170.5,1108.167C170.5,1114.333,170.5,1126.667,170.5,1138.333C170.5,1150,170.5,1161,170.5,1166.5L170.5,1172" id="L_L_M_0" class="edge-thickness-normal edge-pattern-solid edge-thickness-normal edge-pattern-solid flowchart-link" style="" marker-end="url(#mermaid-svg-66_flowchart-v2-pointEnd)"></path><path d="M170.5,1230L170.5,1234.167C170.5,1238.333,170.5,1246.667,170.5,1254.333C170.5,1262,170.5,1269,170.5,1272.5L170.5,1276" id="L_M_N_0" class="edge-thickness-normal edge-pattern-solid edge-thickness-normal edge-pattern-solid flowchart-link" style="" marker-end="url(#mermaid-svg-66_flowchart-v2-pointEnd)"></path><path d="M170.5,1334L170.5,1338.167C170.5,1342.333,170.5,1350.667,170.5,1358.333C170.5,1366,170.5,1373,170.5,1376.5L170.5,1380" id="L_N_O_0" class="edge-thickness-normal edge-pattern-solid edge-thickness-normal edge-pattern-solid flowchart-link" style="" marker-end="url(#mermaid-svg-66_flowchart-v2-pointEnd)"></path><path d="M170.5,1438L170.5,1442.167C170.5,1446.333,170.5,1454.667,170.5,1462.333C170.5,1470,170.5,1477,170.5,1480.5L170.5,1484" id="L_O_P_0" class="edge-thickness-normal edge-pattern-solid edge-thickness-normal edge-pattern-solid flowchart-link" style="" marker-end="url(#mermaid-svg-66_flowchart-v2-pointEnd)"></path><path d="M170.5,1542L170.5,1546.167C170.5,1550.333,170.5,1558.667,175.569,1566.602C180.639,1574.538,190.778,1582.076,195.847,1585.845L200.917,1589.613" id="L_P_Q_0" class="edge-thickness-normal edge-pattern-solid edge-thickness-normal edge-pattern-solid flowchart-link" style="" marker-end="url(#mermaid-svg-66_flowchart-v2-pointEnd)"></path><path d="M240.443,1646L240.443,1650.167C240.443,1654.333,240.443,1662.667,244.189,1670.532C247.936,1678.397,255.428,1685.793,259.174,1689.491L262.92,1693.19" id="L_Q_R_0" class="edge-thickness-normal edge-pattern-solid edge-thickness-normal edge-pattern-solid flowchart-link" style="" marker-end="url(#mermaid-svg-66_flowchart-v2-pointEnd)"></path><path d="M293.115,1750L293.115,1754.167C293.115,1758.333,293.115,1766.667,293.115,1774.333C293.115,1782,293.115,1789,293.115,1792.5L293.115,1796" id="L_R_S_0" class="edge-thickness-normal edge-pattern-solid edge-thickness-normal edge-pattern-solid flowchart-link" style="" marker-end="url(#mermaid-svg-66_flowchart-v2-pointEnd)"></path><path d="M293.115,1854L293.115,1858.167C293.115,1862.333,293.115,1870.667,293.115,1878.333C293.115,1886,293.115,1893,293.115,1896.5L293.115,1900" id="L_S_T_0" class="edge-thickness-normal edge-pattern-solid edge-thickness-normal edge-pattern-solid flowchart-link" style="" marker-end="url(#mermaid-svg-66_flowchart-v2-pointEnd)"></path><path d="M280.627,582L275.022,586.167C269.418,590.333,258.209,598.667,252.604,611.5C247,624.333,247,641.667,247,659C247,676.333,247,693.667,247,711C247,728.333,247,745.667,247,763C247,780.333,247,797.667,247,815C247,832.333,247,849.667,247,867C247,884.333,247,901.667,241.422,914.125C235.843,926.584,224.686,934.168,219.108,937.959L213.529,941.751" id="L_G_K_0" class="edge-thickness-normal edge-pattern-dotted edge-thickness-normal edge-pattern-solid flowchart-link" style="" marker-end="url(#mermaid-svg-66_flowchart-v2-pointEnd)"></path><path d="M330.443,582L332.527,586.167C334.61,590.333,338.777,598.667,340.86,611.5C342.943,624.333,342.943,641.667,342.943,659C342.943,676.333,342.943,693.667,342.943,711C342.943,728.333,342.943,745.667,342.943,763C342.943,780.333,342.943,797.667,342.943,815C342.943,832.333,342.943,849.667,342.943,867C342.943,884.333,342.943,901.667,342.943,919C342.943,936.333,342.943,953.667,342.943,971C342.943,988.333,342.943,1005.667,342.943,1023C342.943,1040.333,342.943,1057.667,342.943,1077C342.943,1096.333,342.943,1117.667,342.943,1139C342.943,1160.333,342.943,1181.667,342.943,1201C342.943,1220.333,342.943,1237.667,342.943,1255C342.943,1272.333,342.943,1289.667,342.943,1307C342.943,1324.333,342.943,1341.667,342.943,1359C342.943,1376.333,342.943,1393.667,342.943,1411C342.943,1428.333,342.943,1445.667,342.943,1463C342.943,1480.333,342.943,1497.667,342.943,1515C342.943,1532.333,342.943,1549.667,335.325,1562.198C327.706,1574.73,312.469,1582.46,304.85,1586.325L297.232,1590.19" id="L_G_Q_0" class="edge-thickness-normal edge-pattern-dotted edge-thickness-normal edge-pattern-solid flowchart-link" style="" marker-end="url(#mermaid-svg-66_flowchart-v2-pointEnd)"></path><path d="M371.292,582L379.679,586.167C388.067,590.333,404.841,598.667,413.228,611.5C421.615,624.333,421.615,641.667,421.615,659C421.615,676.333,421.615,693.667,421.615,711C421.615,728.333,421.615,745.667,421.615,763C421.615,780.333,421.615,797.667,421.615,815C421.615,832.333,421.615,849.667,421.615,867C421.615,884.333,421.615,901.667,421.615,919C421.615,936.333,421.615,953.667,421.615,971C421.615,988.333,421.615,1005.667,421.615,1023C421.615,1040.333,421.615,1057.667,421.615,1077C421.615,1096.333,421.615,1117.667,421.615,1139C421.615,1160.333,421.615,1181.667,421.615,1201C421.615,1220.333,421.615,1237.667,421.615,1255C421.615,1272.333,421.615,1289.667,421.615,1307C421.615,1324.333,421.615,1341.667,421.615,1359C421.615,1376.333,421.615,1393.667,421.615,1411C421.615,1428.333,421.615,1445.667,421.615,1463C421.615,1480.333,421.615,1497.667,421.615,1515C421.615,1532.333,421.615,1549.667,421.615,1567C421.615,1584.333,421.615,1601.667,421.615,1619C421.615,1636.333,421.615,1653.667,411.15,1666.568C400.685,1679.47,379.754,1687.94,369.288,1692.175L358.823,1696.41" id="L_G_R_0" class="edge-thickness-normal edge-pattern-dotted edge-thickness-normal edge-pattern-solid flowchart-link" style="" marker-end="url(#mermaid-svg-66_flowchart-v2-pointEnd)"></path></g><g class="edgeLabels"><g class="edgeLabel"><g class="label" transform="translate(0, 0)"><foreignObject width="0" height="0"><div xmlns="http://www.w3.org/1999/xhtml" class="labelBkg" style="display: table-cell; white-space: nowrap; line-height: 1.5; max-width: 200px; text-align: center;"><span class="edgeLabel"></span></div></foreignObject></g></g><g class="edgeLabel"><g class="label" transform="translate(0, 0)"><foreignObject width="0" height="0"><div xmlns="http://www.w3.org/1999/xhtml" class="labelBkg" style="display: table-cell; white-space: nowrap; line-height: 1.5; max-width: 200px; text-align: center;"><span class="edgeLabel"></span></div></foreignObject></g></g><g class="edgeLabel"><g class="label" transform="translate(0, 0)"><foreignObject width="0" height="0"><div xmlns="http://www.w3.org/1999/xhtml" class="labelBkg" style="display: table-cell; white-space: nowrap; line-height: 1.5; max-width: 200px; text-align: center;"><span class="edgeLabel"></span></div></foreignObject></g></g><g class="edgeLabel"><g class="label" transform="translate(0, 0)"><foreignObject width="0" height="0"><div xmlns="http://www.w3.org/1999/xhtml" class="labelBkg" style="display: table-cell; white-space: nowrap; line-height: 1.5; max-width: 200px; text-align: center;"><span class="edgeLabel"></span></div></foreignObject></g></g><g class="edgeLabel"><g class="label" transform="translate(0, 0)"><foreignObject width="0" height="0"><div xmlns="http://www.w3.org/1999/xhtml" class="labelBkg" style="display: table-cell; white-space: nowrap; line-height: 1.5; max-width: 200px; text-align: center;"><span class="edgeLabel"></span></div></foreignObject></g></g><g class="edgeLabel"><g class="label" transform="translate(0, 0)"><foreignObject width="0" height="0"><div xmlns="http://www.w3.org/1999/xhtml" class="labelBkg" style="display: table-cell; white-space: nowrap; line-height: 1.5; max-width: 200px; text-align: center;"><span class="edgeLabel"></span></div></foreignObject></g></g><g class="edgeLabel"><g class="label" transform="translate(0, 0)"><foreignObject width="0" height="0"><div xmlns="http://www.w3.org/1999/xhtml" class="labelBkg" style="display: table-cell; white-space: nowrap; line-height: 1.5; max-width: 200px; text-align: center;"><span class="edgeLabel"></span></div></foreignObject></g></g><g class="edgeLabel"><g class="label" transform="translate(0, 0)"><foreignObject width="0" height="0"><div xmlns="http://www.w3.org/1999/xhtml" class="labelBkg" style="display: table-cell; white-space: nowrap; line-height: 1.5; max-width: 200px; text-align: center;"><span class="edgeLabel"></span></div></foreignObject></g></g><g class="edgeLabel"><g class="label" transform="translate(0, 0)"><foreignObject width="0" height="0"><div xmlns="http://www.w3.org/1999/xhtml" class="labelBkg" style="display: table-cell; white-space: nowrap; line-height: 1.5; max-width: 200px; text-align: center;"><span class="edgeLabel"></span></div></foreignObject></g></g><g class="edgeLabel"><g class="label" transform="translate(0, 0)"><foreignObject width="0" height="0"><div xmlns="http://www.w3.org/1999/xhtml" class="labelBkg" style="display: table-cell; white-space: nowrap; line-height: 1.5; max-width: 200px; text-align: center;"><span class="edgeLabel"></span></div></foreignObject></g></g><g class="edgeLabel"><g class="label" transform="translate(0, 0)"><foreignObject width="0" height="0"><div xmlns="http://www.w3.org/1999/xhtml" class="labelBkg" style="display: table-cell; white-space: nowrap; line-height: 1.5; max-width: 200px; text-align: center;"><span class="edgeLabel"></span></div></foreignObject></g></g><g class="edgeLabel"><g class="label" transform="translate(0, 0)"><foreignObject width="0" height="0"><div xmlns="http://www.w3.org/1999/xhtml" class="labelBkg" style="display: table-cell; white-space: nowrap; line-height: 1.5; max-width: 200px; text-align: center;"><span class="edgeLabel"></span></div></foreignObject></g></g><g class="edgeLabel"><g class="label" transform="translate(0, 0)"><foreignObject width="0" height="0"><div xmlns="http://www.w3.org/1999/xhtml" class="labelBkg" style="display: table-cell; white-space: nowrap; line-height: 1.5; max-width: 200px; text-align: center;"><span class="edgeLabel"></span></div></foreignObject></g></g><g class="edgeLabel"><g class="label" transform="translate(0, 0)"><foreignObject width="0" height="0"><div xmlns="http://www.w3.org/1999/xhtml" class="labelBkg" style="display: table-cell; white-space: nowrap; line-height: 1.5; max-width: 200px; text-align: center;"><span class="edgeLabel"></span></div></foreignObject></g></g><g class="edgeLabel"><g class="label" transform="translate(0, 0)"><foreignObject width="0" height="0"><div xmlns="http://www.w3.org/1999/xhtml" class="labelBkg" style="display: table-cell; white-space: nowrap; line-height: 1.5; max-width: 200px; text-align: center;"><span class="edgeLabel"></span></div></foreignObject></g></g><g class="edgeLabel"><g class="label" transform="translate(0, 0)"><foreignObject width="0" height="0"><div xmlns="http://www.w3.org/1999/xhtml" class="labelBkg" style="display: table-cell; white-space: nowrap; line-height: 1.5; max-width: 200px; text-align: center;"><span class="edgeLabel"></span></div></foreignObject></g></g><g class="edgeLabel"><g class="label" transform="translate(0, 0)"><foreignObject width="0" height="0"><div xmlns="http://www.w3.org/1999/xhtml" class="labelBkg" style="display: table-cell; white-space: nowrap; line-height: 1.5; max-width: 200px; text-align: center;"><span class="edgeLabel"></span></div></foreignObject></g></g><g class="edgeLabel"><g class="label" transform="translate(0, 0)"><foreignObject width="0" height="0"><div xmlns="http://www.w3.org/1999/xhtml" class="labelBkg" style="display: table-cell; white-space: nowrap; line-height: 1.5; max-width: 200px; text-align: center;"><span class="edgeLabel"></span></div></foreignObject></g></g><g class="edgeLabel"><g class="label" transform="translate(0, 0)"><foreignObject width="0" height="0"><div xmlns="http://www.w3.org/1999/xhtml" class="labelBkg" style="display: table-cell; white-space: nowrap; line-height: 1.5; max-width: 200px; text-align: center;"><span class="edgeLabel"></span></div></foreignObject></g></g><g class="edgeLabel"><g class="label" transform="translate(0, 0)"><foreignObject width="0" height="0"><div xmlns="http://www.w3.org/1999/xhtml" class="labelBkg" style="display: table-cell; white-space: nowrap; line-height: 1.5; max-width: 200px; text-align: center;"><span class="edgeLabel"></span></div></foreignObject></g></g><g class="edgeLabel" transform="translate(247, 763)"><g class="label" transform="translate(-32, -12)"><foreignObject width="64" height="24"><div xmlns="http://www.w3.org/1999/xhtml" class="labelBkg" style="display: table-cell; white-space: nowrap; line-height: 1.5; max-width: 200px; text-align: center;"><span class="edgeLabel"><p>插件钩子</p></span></div></foreignObject></g></g><g class="edgeLabel" transform="translate(342.943359375, 1075)"><g class="label" transform="translate(-32, -12)"><foreignObject width="64" height="24"><div xmlns="http://www.w3.org/1999/xhtml" class="labelBkg" style="display: table-cell; white-space: nowrap; line-height: 1.5; max-width: 200px; text-align: center;"><span class="edgeLabel"><p>插件钩子</p></span></div></foreignObject></g></g><g class="edgeLabel" transform="translate(421.615234375, 1139)"><g class="label" transform="translate(-32, -12)"><foreignObject width="64" height="24"><div xmlns="http://www.w3.org/1999/xhtml" class="labelBkg" style="display: table-cell; white-space: nowrap; line-height: 1.5; max-width: 200px; text-align: center;"><span class="edgeLabel"><p>插件钩子</p></span></div></foreignObject></g></g></g><g class="nodes"><g class="node default" id="flowchart-A-0" transform="translate(316.943359375, 35)"><rect class="basic label-container" style="" x="-79.83984375" y="-27" width="159.6796875" height="54"></rect><g class="label" style="" transform="translate(-49.83984375, -12)"><rect></rect><foreignObject width="99.6796875" height="24"><div xmlns="http://www.w3.org/1999/xhtml" style="display: table-cell; white-space: nowrap; line-height: 1.5; max-width: 200px; text-align: center;"><span class="nodeLabel"><p>启动 webpack</p></span></div></foreignObject></g></g><g class="node default" id="flowchart-B-1" transform="translate(316.943359375, 139)"><rect class="basic label-container" style="" x="-62" y="-27" width="124" height="54"></rect><g class="label" style="" transform="translate(-32, -12)"><rect></rect><foreignObject width="64" height="24"><div xmlns="http://www.w3.org/1999/xhtml" style="display: table-cell; white-space: nowrap; line-height: 1.5; max-width: 200px; text-align: center;"><span class="nodeLabel"><p>读取配置</p></span></div></foreignObject></g></g><g class="node default config" id="flowchart-C-3" transform="translate(187.58203125, 243)"><rect class="basic label-container" style="fill:#e1f5fe !important" x="-95.35546875" y="-27" width="190.7109375" height="54"></rect><g class="label" style="" transform="translate(-65.35546875, -12)"><rect></rect><foreignObject width="130.7109375" height="24"><div xmlns="http://www.w3.org/1999/xhtml" style="display: table-cell; white-space: nowrap; line-height: 1.5; max-width: 200px; text-align: center;"><span class="nodeLabel"><p>webpack.config.js</p></span></div></foreignObject></g></g><g class="node default config" id="flowchart-D-5" transform="translate(398.6484375, 243)"><rect class="basic label-container" style="fill:#e1f5fe !important" x="-65.7109375" y="-27" width="131.421875" height="54"></rect><g class="label" style="" transform="translate(-35.7109375, -12)"><rect></rect><foreignObject width="71.421875" height="24"><div xmlns="http://www.w3.org/1999/xhtml" style="display: table-cell; white-space: nowrap; line-height: 1.5; max-width: 200px; text-align: center;"><span class="nodeLabel"><p>Shell 参数</p></span></div></foreignObject></g></g><g class="node default process" id="flowchart-E-7" transform="translate(316.943359375, 347)"><rect class="basic label-container" style="fill:#f3e5f5 !important" x="-94" y="-27" width="188" height="54"></rect><g class="label" style="" transform="translate(-64, -12)"><rect></rect><foreignObject width="128" height="24"><div xmlns="http://www.w3.org/1999/xhtml" style="display: table-cell; white-space: nowrap; line-height: 1.5; max-width: 200px; text-align: center;"><span class="nodeLabel"><p>配置合并与标准化</p></span></div></foreignObject></g></g><g class="node default process" id="flowchart-F-11" transform="translate(316.943359375, 451)"><rect class="basic label-container" style="fill:#f3e5f5 !important" x="-112.69921875" y="-27" width="225.3984375" height="54"></rect><g class="label" style="" transform="translate(-82.69921875, -12)"><rect></rect><foreignObject width="165.3984375" height="24"><div xmlns="http://www.w3.org/1999/xhtml" style="display: table-cell; white-space: nowrap; line-height: 1.5; max-width: 200px; text-align: center;"><span class="nodeLabel"><p>初始化编译器 Compiler</p></span></div></foreignObject></g></g><g class="node default process" id="flowchart-G-13" transform="translate(316.943359375, 555)"><rect class="basic label-container" style="fill:#f3e5f5 !important" x="-110" y="-27" width="220" height="54"></rect><g class="label" style="" transform="translate(-80, -12)"><rect></rect><foreignObject width="160" height="24"><div xmlns="http://www.w3.org/1999/xhtml" style="display: table-cell; white-space: nowrap; line-height: 1.5; max-width: 200px; text-align: center;"><span class="nodeLabel"><p>实例化插件并挂载钩子</p></span></div></foreignObject></g></g><g class="node default process" id="flowchart-H-15" transform="translate(94, 659)"><rect class="basic label-container" style="fill:#f3e5f5 !important" x="-62" y="-27" width="124" height="54"></rect><g class="label" style="" transform="translate(-32, -12)"><rect></rect><foreignObject width="64" height="24"><div xmlns="http://www.w3.org/1999/xhtml" style="display: table-cell; white-space: nowrap; line-height: 1.5; max-width: 200px; text-align: center;"><span class="nodeLabel"><p>开始编译</p></span></div></foreignObject></g></g><g class="node default process" id="flowchart-I-17" transform="translate(94, 763)"><rect class="basic label-container" style="fill:#f3e5f5 !important" x="-86" y="-27" width="172" height="54"></rect><g class="label" style="" transform="translate(-56, -12)"><rect></rect><foreignObject width="112" height="24"><div xmlns="http://www.w3.org/1999/xhtml" style="display: table-cell; white-space: nowrap; line-height: 1.5; max-width: 200px; text-align: center;"><span class="nodeLabel"><p>从入口文件开始</p></span></div></foreignObject></g></g><g class="node default process" id="flowchart-J-19" transform="translate(94, 867)"><rect class="basic label-container" style="fill:#f3e5f5 !important" x="-62" y="-27" width="124" height="54"></rect><g class="label" style="" transform="translate(-32, -12)"><rect></rect><foreignObject width="64" height="24"><div xmlns="http://www.w3.org/1999/xhtml" style="display: table-cell; white-space: nowrap; line-height: 1.5; max-width: 200px; text-align: center;"><span class="nodeLabel"><p>依赖收集</p></span></div></foreignObject></g></g><g class="node default process" id="flowchart-K-21" transform="translate(170.5, 971)"><rect class="basic label-container" style="fill:#f3e5f5 !important" x="-62" y="-27" width="124" height="54"></rect><g class="label" style="" transform="translate(-32, -12)"><rect></rect><foreignObject width="64" height="24"><div xmlns="http://www.w3.org/1999/xhtml" style="display: table-cell; white-space: nowrap; line-height: 1.5; max-width: 200px; text-align: center;"><span class="nodeLabel"><p>文件编译</p></span></div></foreignObject></g></g><g class="node default process" id="flowchart-L-23" transform="translate(170.5, 1075)"><rect class="basic label-container" style="fill:#f3e5f5 !important" x="-72.88671875" y="-27" width="145.7734375" height="54"></rect><g class="label" style="" transform="translate(-42.88671875, -12)"><rect></rect><foreignObject width="85.7734375" height="24"><div xmlns="http://www.w3.org/1999/xhtml" style="display: table-cell; white-space: nowrap; line-height: 1.5; max-width: 200px; text-align: center;"><span class="nodeLabel"><p>Loader 解析</p></span></div></foreignObject></g></g><g class="node default process" id="flowchart-M-25" transform="translate(170.5, 1203)"><rect class="basic label-container" style="fill:#f3e5f5 !important" x="-85.4765625" y="-27" width="170.953125" height="54"></rect><g class="label" style="" transform="translate(-55.4765625, -12)"><rect></rect><foreignObject width="110.953125" height="24"><div xmlns="http://www.w3.org/1999/xhtml" style="display: table-cell; white-space: nowrap; line-height: 1.5; max-width: 200px; text-align: center;"><span class="nodeLabel"><p>AST 语法树分析</p></span></div></foreignObject></g></g><g class="node default process" id="flowchart-N-27" transform="translate(170.5, 1307)"><rect class="basic label-container" style="fill:#f3e5f5 !important" x="-78" y="-27" width="156" height="54"></rect><g class="label" style="" transform="translate(-48, -12)"><rect></rect><foreignObject width="96" height="24"><div xmlns="http://www.w3.org/1999/xhtml" style="display: table-cell; white-space: nowrap; line-height: 1.5; max-width: 200px; text-align: center;"><span class="nodeLabel"><p>依赖关系分析</p></span></div></foreignObject></g></g><g class="node default process" id="flowchart-O-29" transform="translate(170.5, 1411)"><rect class="basic label-container" style="fill:#f3e5f5 !important" x="-86" y="-27" width="172" height="54"></rect><g class="label" style="" transform="translate(-56, -12)"><rect></rect><foreignObject width="112" height="24"><div xmlns="http://www.w3.org/1999/xhtml" style="display: table-cell; white-space: nowrap; line-height: 1.5; max-width: 200px; text-align: center;"><span class="nodeLabel"><p>模块化语法替换</p></span></div></foreignObject></g></g><g class="node default process" id="flowchart-P-31" transform="translate(170.5, 1515)"><rect class="basic label-container" style="fill:#f3e5f5 !important" x="-96.09375" y="-27" width="192.1875" height="54"></rect><g class="label" style="" transform="translate(-66.09375, -12)"><rect></rect><foreignObject width="132.1875" height="24"><div xmlns="http://www.w3.org/1999/xhtml" style="display: table-cell; white-space: nowrap; line-height: 1.5; max-width: 200px; text-align: center;"><span class="nodeLabel"><p><em>webpack_require</em>_</p></span></div></foreignObject></g></g><g class="node default output" id="flowchart-Q-33" transform="translate(240.443359375, 1619)"><rect class="basic label-container" style="fill:#e8f5e8 !important" x="-70.34375" y="-27" width="140.6875" height="54"></rect><g class="label" style="" transform="translate(-40.34375, -12)"><rect></rect><foreignObject width="80.6875" height="24"><div xmlns="http://www.w3.org/1999/xhtml" style="display: table-cell; white-space: nowrap; line-height: 1.5; max-width: 200px; text-align: center;"><span class="nodeLabel"><p>生成 Chunk</p></span></div></foreignObject></g></g><g class="node default output" id="flowchart-R-35" transform="translate(293.115234375, 1723)"><rect class="basic label-container" style="fill:#e8f5e8 !important" x="-62" y="-27" width="124" height="54"></rect><g class="label" style="" transform="translate(-32, -12)"><rect></rect><foreignObject width="64" height="24"><div xmlns="http://www.w3.org/1999/xhtml" style="display: table-cell; white-space: nowrap; line-height: 1.5; max-width: 200px; text-align: center;"><span class="nodeLabel"><p>结果打包</p></span></div></foreignObject></g></g><g class="node default output" id="flowchart-S-37" transform="translate(293.115234375, 1827)"><rect class="basic label-container" style="fill:#e8f5e8 !important" x="-86" y="-27" width="172" height="54"></rect><g class="label" style="" transform="translate(-56, -12)"><rect></rect><foreignObject width="112" height="24"><div xmlns="http://www.w3.org/1999/xhtml" style="display: table-cell; white-space: nowrap; line-height: 1.5; max-width: 200px; text-align: center;"><span class="nodeLabel"><p>输出到目标目录</p></span></div></foreignObject></g></g><g class="node default output" id="flowchart-T-39" transform="translate(293.115234375, 1931)"><rect class="basic label-container" style="fill:#e8f5e8 !important" x="-62" y="-27" width="124" height="54"></rect><g class="label" style="" transform="translate(-32, -12)"><rect></rect><foreignObject width="64" height="24"><div xmlns="http://www.w3.org/1999/xhtml" style="display: table-cell; white-space: nowrap; line-height: 1.5; max-width: 200px; text-align: center;"><span class="nodeLabel"><p>构建完成</p></span></div></foreignObject></g></g></g></g></g></svg>